# xmcd CD database file
#
# Track frame offsets:
#	150
#	31663
#	44556
#	64251
#	80059
#	96090
#	117209
#	133374
#	147525
#	167303
#	185449
#	202705
#	221111
#	237255
#
# Disc length: 3389 seconds
#
# Revision: 0
# Processed by: cddbd v1.5.2PL0 Copyright (c) Steve Scherf et al.
# Submitted via: CDex 1.70beta2
#
DISCID=ca0d3b0e
DTITLE=Various Artist - Only Mambo Vol. 2
DYEAR=2004
DGENRE=Merengue
TTITLE0=Pegame Tu Vicio (En vivo) - Eddy Herrera
TTITLE1=Quiero un Cuero - Charlie Valens
TTITLE2=El Envidioso - Luis Vargas
TTITLE3=Kikiriki - Mala Fe
TTITLE4=Te lo deje a Ti - Barimambo
TTITLE5=El Bocinon - Kinito Mendez
TTITLE6=Cachondeo - Sutanejo y Peresejo
TTITLE7=No he lo Mismo II - Charlie Valens
TTITLE8=Maria se va - Charlie Valens
TTITLE9=Seuena el mambo - Crusa Calle
TTITLE10=Me recoje tu Maleta - Mala Fe
TTITLE11=Remeneate - Marcos Caminero
TTITLE12=Que le den Dinero - Grupo Tambo
TTITLE13=La Bebedera - Home Boys
EXTD=YEAR: 2004
EXTT0=
EXTT1=
EXTT2=
EXTT3=
EXTT4=
EXTT5=
EXTT6=
EXTT7=
EXTT8=
EXTT9=
EXTT10=
EXTT11=
EXTT12=
EXTT13=
PLAYORDER=
